<?xml version="1.0" encoding="iso-8859-1"?>
<!-- Generator: Adobe Illustrator 19.0.0, SVG Export Plug-In . SVG Version: 6.00 Build 0)  -->
<svg version="1.1" id="Capa_1" xmlns="http://www.w3.org/2000/svg" xmlns:xlink="http://www.w3.org/1999/xlink" x="0px" y="0px"
	 viewBox="0 0 480 480" style="enable-background:new 0 0 480 480;" xml:space="preserve">
<linearGradient id="SVGID_1_" gradientUnits="userSpaceOnUse" x1="-26.875" y1="537.5211" x2="-26.875" y2="593.004" gradientTransform="matrix(8 0 0 -8 455 4760.7842)">
	<stop  offset="0" style="stop-color:#006DF0"/>
	<stop  offset="1" style="stop-color:#00E7F0"/>
</linearGradient>
<path style="fill:url(#SVGID_1_);" d="M472,163.976c4.418,0,8-3.582,8-8v-48c0-4.418-3.582-8-8-8H200c-4.418,0-8,3.582-8,8v48
	c0,4.418,3.582,8,8,8h16v176h-12.088L161.976,56.368c-1.726-11.759-11.843-20.454-23.728-20.392H96v-8c0-4.418-3.582-8-8-8H24
	c-13.255,0-24,10.745-24,24s10.745,24,24,24h64c4.418,0,8-3.582,8-8v-8h42.248c3.914-0.035,7.268,2.792,7.896,6.656l51.88,348.952
	c1.726,11.759,11.843,20.454,23.728,20.392H248.8c4.396,21.65,25.51,35.636,47.16,31.24c15.741-3.196,28.044-15.499,31.24-31.24
	h57.6c4.418,21.645,25.547,35.61,47.192,31.192s35.61-25.547,31.192-47.192s-25.547-35.61-47.192-31.192
	c-15.709,3.207-27.985,15.483-31.192,31.192h-57.6c-4.396-21.65-25.51-35.636-47.16-31.24c-15.741,3.196-28.044,15.499-31.24,31.24
	h-27.048c-3.959,0.005-7.326-2.886-7.92-6.8l-7.48-49.2H472c4.418,0,8-3.582,8-8s-3.582-8-8-8h-16v-176H472z M80,51.976H24
	c-4.418,0-8-3.582-8-8s3.582-8,8-8h56V51.976z M424,395.976c13.255,0,24,10.745,24,24s-10.745,24-24,24s-24-10.745-24-24
	S410.745,395.976,424,395.976z M288,395.976c13.255,0,24,10.745,24,24s-10.745,24-24,24s-24-10.745-24-24
	S274.745,395.976,288,395.976z M208,115.976h256v32H208V115.976z M440,339.976H232v-176h208V339.976z"/>
<g>
	
		<linearGradient id="SVGID_2_" gradientUnits="userSpaceOnUse" x1="-14.875" y1="537.5211" x2="-14.875" y2="593.004" gradientTransform="matrix(8 0 0 -8 455 4760.7842)">
		<stop  offset="0" style="stop-color:#006DF0"/>
		<stop  offset="1" style="stop-color:#00E7F0"/>
	</linearGradient>
	<path style="fill:url(#SVGID_2_);" d="M312,219.976h48c13.255,0,24-10.745,24-24s-10.745-24-24-24h-48c-13.255,0-24,10.745-24,24
		S298.745,219.976,312,219.976z M312,187.976h48c4.418,0,8,3.582,8,8s-3.582,8-8,8h-48c-4.418,0-8-3.582-8-8
		S307.582,187.976,312,187.976z"/>
	
		<linearGradient id="SVGID_3_" gradientUnits="userSpaceOnUse" x1="-45.875" y1="537.5211" x2="-45.875" y2="593.004" gradientTransform="matrix(8 0 0 -8 455 4760.7842)">
		<stop  offset="0" style="stop-color:#006DF0"/>
		<stop  offset="1" style="stop-color:#00E7F0"/>
	</linearGradient>
	<path style="fill:url(#SVGID_3_);" d="M168,315.976H8c-4.418,0-8,3.582-8,8v32c0,4.418,3.582,8,8,8h8v88c0,4.418,3.582,8,8,8h128
		c4.418,0,8-3.582,8-8v-88h8c4.418,0,8-3.582,8-8v-32C176,319.558,172.418,315.976,168,315.976z M144,443.976H32v-80h112V443.976z
		 M160,347.976H16v-16h144V347.976z"/>
	
		<linearGradient id="SVGID_4_" gradientUnits="userSpaceOnUse" x1="-45.875" y1="537.5211" x2="-45.875" y2="593.004" gradientTransform="matrix(8 0 0 -8 455 4760.7842)">
		<stop  offset="0" style="stop-color:#006DF0"/>
		<stop  offset="1" style="stop-color:#00E7F0"/>
	</linearGradient>
	<path style="fill:url(#SVGID_4_);" d="M72,387.976h32c4.418,0,8-3.582,8-8s-3.582-8-8-8H72c-4.418,0-8,3.582-8,8
		S67.582,387.976,72,387.976z"/>
</g>
<g>
</g>
<g>
</g>
<g>
</g>
<g>
</g>
<g>
</g>
<g>
</g>
<g>
</g>
<g>
</g>
<g>
</g>
<g>
</g>
<g>
</g>
<g>
</g>
<g>
</g>
<g>
</g>
<g>
</g>
</svg>
